# File created by Blade
# Date/Time:  Tue Sep 30 19:12:23 2014
#---------------------------------------------------------
:version 1.10
:name HOM
:units
  mass 1.0
  length 1.000000
  angle deg
:documentation
     Acclaim Skeleton File
:root
   axis xyz
   order TX TY TZ RX RY RZ
   position 0.000000 0.000000 0.000000
   orientation 0 0 0
:bonedata
   begin
      id 1
      name Spine_dum
      direction 0.000000 1.000000 0.000000
      length 7.508948
      axis 0.0 0.0 0.0 xyz
   end
   begin
      id 2
      name LeftUpLeg_dum
      direction 1.000000 0.000000 0.000000
      length 3.000560
      axis 0.0 0.0 0.0 xyz
   end
   begin
      id 3
      name RightUpLeg_dum
      direction -1.000000 0.000000 0.000000
      length 3.000560
      axis 0.0 0.0 0.0 xyz
   end
   begin
      id 4
      name Spine
      direction 0.000000 1.000000 0.000000
      length 0.000000
      axis 0.0 0.0 0.0 xyz
      dof rx ry rz
   end
   begin
      id 5
      name Spine_dum1
      direction 0.000000 1.000000 0.000000
      length 13.861154
      axis 0.0 0.0 0.0 xyz
   end
   begin
      id 6
      name Spine_dum2
      direction 0.000000 1.000000 0.000000
      length 8.204781
      axis 0.0 0.0 0.0 xyz
   end
   begin
      id 7
      name Spine_dum3
      direction 0.000000 1.000000 0.000000
      length 8.204781
      axis 0.0 0.0 0.0 xyz
   end
   begin
      id 8
      name Head
      direction 0.000000 1.000000 0.000000
      length 4.527550
      axis 0.0 0.0 0.0 xyz
      dof rx ry rz
   end
   begin
      id 9
      name LeftShoulder
      direction 1.000000 0.000000 0.000000
      length 6.635956
      axis 0.0 0.0 -90.0 xyz
      dof rx ry rz
   end
   begin
      id 10
      name LeftArm
      direction 1.000000 0.000000 0.000000
      length 10.274218
      axis 0.0 0.0 -90.0 xyz
      dof rx ry rz
   end
   begin
      id 11
      name LeftForeArm
      direction 1.000000 0.000000 0.000000
      length 8.522147
      axis 0.0 0.0 -90.0 xyz
      dof ry rz rx
   end
   begin
      id 12
      name LeftHand
      direction 0.000000 0.000000 0.000000
      length 0.000000
      axis 0.0 0.0 -90.0 xyz
      dof rx ry rz
   end
   begin
      id 13
      name LeftHand_dum1
      direction 0.000000 0.000000 0.000000
      length 0.000000
      axis 0.0 0.0 -90.0 xyz
   end
   begin
      id 14
      name LeftHand_dum2
      direction 1.000000 0.000000 0.000000
      length 3.937000
      axis 0.0 0.0 -90.0 xyz
   end
   begin
      id 15
      name LeftHandThumb1
      direction 0.000000 0.000000 1.000000
      length 3.937000
      axis 0.0 0.0 -90.0 xyz
      dof rx rz ry
   end
   begin
      id 16
      name RightShoulder
      direction -1.000000 0.000000 0.000000
      length 6.635956
      axis 0.0 0.0 90.0 xyz
      dof rx ry rz
   end
   begin
      id 17
      name RightArm
      direction -1.000000 0.000000 0.000000
      length 10.274218
      axis 0.0 0.0 90.0 xyz
      dof rx ry rz
   end
   begin
      id 18
      name RightForeArm
      direction -1.000000 0.000000 0.000000
      length 8.522147
      axis 0.0 0.0 90.0 xyz
      dof ry rz rx
   end
   begin
      id 19
      name RightHand
      direction 0.000000 0.000000 0.000000
      length 0.000000
      axis 0.0 0.0 90.0 xyz
      dof rx ry rz
   end
   begin
      id 20
      name RightHand_dum1
      direction 0.000000 0.000000 0.000000
      length 0.000000
      axis 0.0 0.0 90.0 xyz
   end
   begin
      id 21
      name RightHand_dum2
      direction -1.000000 0.000000 0.000000
      length 3.937000
      axis 0.0 0.0 90.0 xyz
   end
   begin
      id 22
      name RightHandThumb1
      direction 0.000000 0.000000 1.000000
      length 3.937000
      axis 0.0 0.0 90.0 xyz
      dof rx rz ry
   end
   begin
      id 23
      name LeftUpLeg
      direction 0.000000 -1.000000 0.000000
      length 16.490845
      axis 0.0 0.0 0.0 xyz
      dof rx ry rz
   end
   begin
      id 24
      name LeftLeg
      direction 0.000000 -1.000000 0.000000
      length 14.556576
      axis 0.0 0.0 0.0 xyz
      dof rx ry rz
   end
   begin
      id 25
      name LeftFoot
      direction 0.000000 -0.258819 0.965926
      length 4.831116
      axis 15.0 0.0 0.0 xyz
      dof rx ry rz
   end
   begin
      id 26
      name LeftToeBase
      direction 0.000000 0.000000 1.000000
      length 2.952750
      axis 0.0 0.0 0.0 xyz
      dof rx ry rz
   end
   begin
      id 27
      name RightUpLeg
      direction 0.000000 -1.000000 0.000000
      length 16.490845
      axis 0.0 0.0 0.0 xyz
      dof rx ry rz
   end
   begin
      id 28
      name RightLeg
      direction 0.000000 -1.000000 0.000000
      length 14.556576
      axis 0.0 0.0 0.0 xyz
      dof rx ry rz
   end
   begin
      id 29
      name RightFoot
      direction 0.000000 -0.258819 0.965926
      length 4.831116
      axis 15.0 0.0 0.0 xyz
      dof rx ry rz
   end
   begin
      id 30
      name RightToeBase
      direction 0.000000 0.000000 1.000000
      length 2.952750
      axis 0.0 0.0 0.0 xyz
      dof rx ry rz
   end
:hierarchy
   begin
      root Spine_dum LeftUpLeg_dum RightUpLeg_dum
      Spine_dum Spine
      LeftUpLeg_dum LeftUpLeg
      RightUpLeg_dum RightUpLeg
      Spine Spine_dum1 Spine_dum2 Spine_dum3
      Spine_dum1 Head
      Spine_dum2 LeftShoulder
      Spine_dum3 RightShoulder
      LeftShoulder LeftArm
      LeftArm LeftForeArm
      LeftForeArm LeftHand
      LeftHand LeftHand_dum1 LeftHand_dum2
      LeftHand_dum1 LeftHandThumb1
      RightShoulder RightArm
      RightArm RightForeArm
      RightForeArm RightHand
      RightHand RightHand_dum1 RightHand_dum2
      RightHand_dum1 RightHandThumb1
      LeftUpLeg LeftLeg
      LeftLeg LeftFoot
      LeftFoot LeftToeBase
      RightUpLeg RightLeg
      RightLeg RightFoot
      RightFoot RightToeBase
   end

# File created by Blade
# Date/Time:  Thu Sep 25 17:43:48 2014
# Frame Rate: 120.000 fps
#------------------------------------------------------
:FULLY-SPECIFIED
:DEGREES
59
root 17.248245 39.513505 -1.475757 -320.987879 -112.715344 -6.815866
Spine 3.956556 15.271511 -24.471972
Head -49.048512 3.334978 7.917931
LeftShoulder -3.465568 7.815257 44.101182
LeftArm 13.553672 -54.123603 -14.166612
LeftForeArm 27.297512 0.000000 64.387696
LeftHand -33.610056 0.000000 4.843230
LeftHandThumb1 -26.253704 0.000000 33.147579
RightShoulder -5.075618 28.718184 -46.192549
RightArm 19.583220 -7.692343 16.430229
RightForeArm -0.951969 -0.000000 8.419347
RightHand -8.526440 -0.000000 -1.221252
RightHandThumb1 -24.326973 -0.000000 -32.862282
LeftUpLeg -86.375253 22.746988 17.810883
LeftLeg 18.342611 -0.000000 -0.000000
LeftFoot 39.985297 28.891863 353.821747
LeftToeBase 15.650567 -0.000000 -0.000000
RightUpLeg -20.710293 -17.954114 -5.425593
RightLeg 10.026374 -0.000000 -0.000000
RightFoot 48.344389 17.903537 4.866045
RightToeBase 9.396062 -0.000000 -0.000000
60
root 16.608286 39.679522 -1.534182 -323.910610 -112.115491 -3.909311
Spine 3.064241 15.950340 -22.925619
Head -46.829005 3.314762 7.262501
LeftShoulder -4.073777 8.849615 44.082633
LeftArm 15.277243 -53.490509 -15.885111
LeftForeArm 29.553928 -0.000000 60.231012
LeftHand -33.666318 -0.000000 2.905209
LeftHandThumb1 -26.253704 0.000000 33.147579
RightShoulder -4.846534 26.863791 -46.772777
RightArm 17.073841 -5.713181 16.705153
RightForeArm -3.534021 -0.000000 9.126968
RightHand -8.015262 -0.000000 1.295410
RightHandThumb1 -24.326973 -0.000000 -32.862282
LeftUpLeg -84.986224 24.041382 21.806114
LeftLeg 11.766581 -0.000000 -0.000000
LeftFoot 38.817892 31.755423 355.351672
LeftToeBase 13.099935 -0.000000 -0.000000
RightUpLeg -16.432505 -15.273391 -7.243085
RightLeg 9.878743 -0.000000 -0.000000
RightFoot 48.166689 18.499839 4.278601
RightToeBase 9.821099 -0.000000 -0.000000
61
root 15.930711 39.784527 -1.603096 -327.457447 -111.375693 -0.591337
Spine 2.245197 16.839944 -20.912004
Head -44.631237 3.017869 6.464737
LeftShoulder -4.148924 8.822893 43.824315
LeftArm 15.789291 -51.995376 -16.511779
LeftForeArm 28.497931 -0.000000 56.012530
LeftHand -32.032014 -0.000000 -0.525443
LeftHandThumb1 -26.253704 0.000000 33.147579
RightShoulder -4.583608 25.339801 -47.224394
RightArm 14.614601 -4.641459 16.454208
RightForeArm -7.063615 -0.000000 9.738869
RightHand -7.839410 -0.000000 5.122168
RightHandThumb1 -24.326973 -0.000000 -32.862282
LeftUpLeg -84.371750 25.434223 24.625203
LeftLeg 6.772775 -0.000000 -0.000000
LeftFoot 39.127366 33.083788 358.861249
LeftToeBase 9.971702 -0.000000 -0.000000
RightUpLeg -11.821948 -13.224282 -8.552387
RightLeg 9.610868 -0.000000 -0.000000
RightFoot 48.369815 17.237942 4.118041
RightToeBase 9.950414 -0.000000 -0.000000
62
root 15.225903 39.847283 -1.663085 -330.789679 -110.695833 2.489025
Spine 1.302776 17.830468 -19.010905
Head -42.479895 2.411157 5.794412
LeftShoulder -3.980410 8.460544 43.359733
LeftArm 15.775979 -49.973010 -16.361629
LeftForeArm 26.386548 -0.000000 51.540986
LeftHand -30.301474 -0.000000 -2.719657
LeftHandThumb1 -26.253704 0.000000 33.147579
RightShoulder -4.515504 24.002634 -47.584365
RightArm 12.337077 -3.962259 16.009056
RightForeArm -9.746190 0.000000 9.963052
RightHand -7.073397 -0.000000 8.016974
RightHandThumb1 -24.326973 -0.000000 -32.862282
LeftUpLeg -84.892605 26.859812 25.655155
LeftLeg 3.236637 -0.000000 -0.000000
LeftFoot 40.067775 32.045132 362.806437
LeftToeBase 9.851367 -0.000000 -0.000000
RightUpLeg -7.204879 -11.936497 -9.742364
RightLeg 9.493569 -0.000000 -0.000000
RightFoot 47.862057 14.531076 3.305643
RightToeBase 12.681988 -0.000000 -0.000000
63
root 14.501334 39.874274 -1.663969 -332.896356 -110.276265 4.307353
Spine 0.322012 18.783145 -17.765293
Head -40.790819 1.495317 5.425802
LeftShoulder -3.716379 8.374714 42.927589
LeftArm 15.197681 -47.654880 -15.617368
LeftForeArm 25.222000 -0.000000 47.049677
LeftHand -29.876668 -0.000000 -2.046432
LeftHandThumb1 -26.253704 0.000000 33.147579
RightShoulder -4.946374 23.202469 -47.967885
RightArm 10.336306 -3.769052 15.657889
RightForeArm -11.248517 -0.000000 10.027011
RightHand -6.614094 -0.000000 9.705048
RightHandThumb1 -24.326973 -0.000000 -32.862282
LeftUpLeg -86.713455 28.065890 24.430567
LeftLeg 1.314925 -0.000000 -0.000000
LeftFoot 39.777913 30.957600 363.491843
LeftToeBase 9.543813 -0.000000 -0.000000
RightUpLeg -2.664969 -11.338271 -11.463566
RightLeg 9.514925 -0.000000 -0.000000
RightFoot 47.292335 11.903502 1.782473
RightToeBase 13.431175 -0.000000 -0.000000
64
root 13.769273 39.869458 -1.619623 -333.670665 -110.221234 4.818085
Spine -0.860595 19.633776 -17.422016
Head -39.312449 0.574847 5.721046
LeftShoulder -3.725838 8.368758 42.612767
LeftArm 14.603893 -44.986300 -14.694330
LeftForeArm 25.158364 -0.000000 42.592329
LeftHand -29.836787 -0.000000 -0.713629
LeftHandThumb1 -26.253704 0.000000 33.147579
RightShoulder -5.679402 22.515517 -48.040422
RightArm 8.730662 -2.798783 15.363630
RightForeArm -12.595162 -0.000000 10.085244
RightHand -6.918989 -0.000000 10.950122
RightHandThumb1 -24.326973 -0.000000 -32.862282
LeftUpLeg -89.434096 29.077893 21.739723
LeftLeg 1.175730 -0.000000 -0.000000
LeftFoot 38.997116 31.105824 361.136847
LeftToeBase 7.998340 -0.000000 -0.000000
RightUpLeg 1.626667 -11.185038 -13.844085
RightLeg 9.817667 -0.000000 -0.000000
RightFoot 46.655366 9.484546 -0.202804
RightToeBase 12.084191 -0.000000 -0.000000
65
root 13.033068 39.831233 -1.560226 -333.987290 -110.569292 4.883341
Spine -2.269534 20.501559 -17.729410
Head -37.888846 0.066626 6.561594
LeftShoulder -3.808124 8.628479 42.634566
LeftArm 13.713407 -42.193658 -13.666036
LeftForeArm 24.335812 0.000000 38.091054
LeftHand -29.220646 0.000000 -0.687283
LeftHandThumb1 -26.253704 0.000000 33.147579
RightShoulder -6.493152 22.187002 -47.812124
RightArm 7.489698 -2.323781 14.894107
RightForeArm -12.982430 0.000000 9.715983
RightHand -7.822320 -0.000000 11.163710
RightHandThumb1 -24.326973 -0.000000 -32.862282
LeftUpLeg -92.548235 30.125493 18.433418
LeftLeg 2.435605 -0.000000 -0.000000
LeftFoot 39.349960 30.607355 359.482549
LeftToeBase 9.301482 -0.000000 -0.000000
RightUpLeg 5.715238 -11.086151 -16.671871
RightLeg 10.325688 -0.000000 -0.000000
RightFoot 46.292908 7.632199 -2.239342
RightToeBase 12.535490 -0.000000 -0.000000
66
root 12.307438 39.759522 -1.489437 -334.641639 -111.297731 5.379819
Spine -3.945439 21.388188 -18.143119
Head -36.291535 -0.105991 7.463229
LeftShoulder -4.068053 9.268552 42.672494
LeftArm 12.781452 -39.119774 -12.616188
LeftForeArm 22.284798 -0.000000 33.697263
LeftHand -28.587246 -0.000000 -0.478780
LeftHandThumb1 -26.253704 0.000000 33.147579
RightShoulder -7.213891 22.079969 -47.488743
RightArm 6.332458 -1.550163 14.432923
RightForeArm -13.294196 -0.000000 9.645796
RightHand -8.487664 -0.000000 10.487058
RightHandThumb1 -24.326973 -0.000000 -32.862282
LeftUpLeg -95.449941 31.457410 15.813933
LeftLeg 4.509803 -0.000000 -0.000000
LeftFoot 40.393470 29.578333 358.962332
LeftToeBase 11.208383 -0.000000 -0.000000
RightUpLeg 9.392153 -11.194186 -19.751045
RightLeg 11.158701 -0.000000 -0.000000
RightFoot 46.202571 6.728400 -4.182875
RightToeBase 14.090705 -0.000000 -0.000000
67
root 11.593458 39.655052 -1.442042 -336.691506 -112.241137 7.161928
Spine -5.411437 22.414176 -17.921130
Head -34.691912 0.061866 7.926519
LeftShoulder -4.656080 10.283785 42.390987
LeftArm 12.049541 -36.155908 -11.799585
LeftForeArm 20.637189 -0.000000 29.578651
LeftHand -27.576941 -0.000000 0.093564
LeftHandThumb1 -26.253704 0.000000 33.147579
RightShoulder -7.897537 22.109167 -47.302644
RightArm 5.328927 -0.659854 13.972414
RightForeArm -13.769867 -0.000000 9.664688
RightHand -8.830504 0.000000 9.523641
RightHandThumb1 -24.326973 -0.000000 -32.862282
LeftUpLeg -97.661330 33.161488 14.445166
LeftLeg 6.686989 -0.000000 -0.000000
LeftFoot 41.065918 28.821775 358.307413
LeftToeBase 13.789715 -0.000000 -0.000000
RightUpLeg 12.940710 -11.328995 -22.709974
RightLeg 12.105392 -0.000000 -0.000000
RightFoot 46.235930 6.515243 -5.903132
RightToeBase 16.962671 -0.000000 -0.000000
68
root 10.906236 39.542674 -1.387684 -338.634122 -113.638847 9.023546
Spine -7.125045 23.509676 -17.823037
Head -32.956729 0.415706 8.252157
LeftShoulder -5.410847 11.511845 42.022128
LeftArm 11.348396 -32.918754 -11.010085
LeftForeArm 18.728873 0.000000 25.461496
LeftHand -27.058511 -0.000000 1.119547
LeftHandThumb1 -26.253704 0.000000 33.147579
RightShoulder -8.492107 22.394433 -47.194421
RightArm 4.445879 -0.196442 13.597011
RightForeArm -14.632573 -0.000000 9.624903
RightHand -10.062939 -0.000000 8.793895
RightHandThumb1 -24.326973 -0.000000 -32.862282
LeftUpLeg -99.424502 35.230707 13.482271
LeftLeg 8.271512 -0.000000 -0.000000
LeftFoot 40.596656 29.198306 357.162043
LeftToeBase 18.426510 -0.000000 -0.000000
RightUpLeg 15.757705 -11.353199 -25.890513
RightLeg 13.355581 -0.000000 -0.000000
RightFoot 46.268651 7.088579 -7.827350
RightToeBase 20.023559 -0.000000 -0.000000
69
root 10.240835 39.426390 -1.354849 -340.663770 -115.133002 11.057227
Spine -8.894740 24.445995 -17.528936
Head -31.036885 1.013371 8.319425
LeftShoulder -6.253980 12.734372 41.511543
LeftArm 10.642145 -29.208396 -10.169093
LeftForeArm 15.394849 -0.000000 21.336130
LeftHand -27.515543 -0.000000 2.168089
LeftHandThumb1 -26.253704 0.000000 33.147579
RightShoulder -8.778588 22.507720 -47.057821
RightArm 3.560206 0.143679 13.254524
RightForeArm -15.608322 -0.000000 9.633164
RightHand -9.580523 -0.000000 7.730260
RightHandThumb1 -24.326973 -0.000000 -32.862282
LeftUpLeg -100.665923 37.367141 12.785480
LeftLeg 8.653491 -0.000000 -0.000000
LeftFoot 39.862435 30.256007 356.639765
LeftToeBase 21.171838 -0.000000 -0.000000
RightUpLeg 18.094393 -11.398620 -29.023513
RightLeg 14.866934 -0.000000 -0.000000
RightFoot 45.993462 7.186257 -9.599318
RightToeBase 19.643640 -0.000000 -0.000000
70
root 9.590502 39.309510 -1.329462 -343.016912 -116.766888 13.456149
Spine -10.489769 25.364904 -16.632598
Head -29.018549 1.410950 7.706316
LeftShoulder -7.396309 14.024771 40.654694
LeftArm 9.831914 -26.929087 -10.128433
LeftForeArm 12.688706 0.000000 18.651634
LeftHand -27.366439 0.000000 1.516076
LeftHandThumb1 -26.253704 0.000000 33.147579
RightShoulder -8.804881 22.633356 -47.179624
RightArm 2.658472 0.112624 12.952316
RightForeArm -16.390361 -0.000000 9.566453
RightHand -9.539183 -0.000000 7.969039
RightHandThumb1 -24.326973 -0.000000 -32.862282
LeftUpLeg -101.177744 39.567826 12.594657
LeftLeg 7.734218 -0.000000 -0.000000
LeftFoot 39.350854 31.052422 357.314121
LeftToeBase 20.880433 -0.000000 -0.000000
RightUpLeg 19.997623 -11.245541 -31.875366
RightLeg 16.424141 -0.000000 -0.000000
RightFoot 45.319103 7.090087 -10.918574
RightToeBase 19.371459 -0.000000 -0.000000
